<?xml version="1.0" standalone="no"?>
<svg xmlns:xlink="http://www.w3.org/1999/xlink" id="wave" style="transform:rotate(0deg); transition: 0.3s" viewBox="0 0 1440 490" version="1.1" xmlns="http://www.w3.org/2000/svg"><defs><linearGradient id="sw-gradient-0" x1="0" x2="0" y1="1" y2="0"><stop stop-color="rgba(0, 73.452, 177.334, 1)" offset="0%"/><stop stop-color="rgba(2.255, 33.278, 77.152, 1)" offset="100%"/></linearGradient></defs><path style="transform:translate(0, 0px); opacity:1" fill="url(#sw-gradient-0)" d="M0,343L40,334.8C80,327,160,310,240,277.7C320,245,400,196,480,212.3C560,229,640,310,720,285.8C800,261,880,131,960,73.5C1040,16,1120,33,1200,65.3C1280,98,1360,147,1440,187.8C1520,229,1600,261,1680,302.2C1760,343,1840,392,1920,392C2000,392,2080,343,2160,318.5C2240,294,2320,294,2400,245C2480,196,2560,98,2640,122.5C2720,147,2800,294,2880,310.3C2960,327,3040,212,3120,155.2C3200,98,3280,98,3360,106.2C3440,114,3520,131,3600,171.5C3680,212,3760,278,3840,310.3C3920,343,4000,343,4080,285.8C4160,229,4240,114,4320,114.3C4400,114,4480,229,4560,302.2C4640,376,4720,408,4800,359.3C4880,310,4960,180,5040,179.7C5120,180,5200,310,5280,326.7C5360,343,5440,245,5520,220.5C5600,196,5680,245,5720,269.5L5760,294L5760,490L5720,490C5680,490,5600,490,5520,490C5440,490,5360,490,5280,490C5200,490,5120,490,5040,490C4960,490,4880,490,4800,490C4720,490,4640,490,4560,490C4480,490,4400,490,4320,490C4240,490,4160,490,4080,490C4000,490,3920,490,3840,490C3760,490,3680,490,3600,490C3520,490,3440,490,3360,490C3280,490,3200,490,3120,490C3040,490,2960,490,2880,490C2800,490,2720,490,2640,490C2560,490,2480,490,2400,490C2320,490,2240,490,2160,490C2080,490,2000,490,1920,490C1840,490,1760,490,1680,490C1600,490,1520,490,1440,490C1360,490,1280,490,1200,490C1120,490,1040,490,960,490C880,490,800,490,720,490C640,490,560,490,480,490C400,490,320,490,240,490C160,490,80,490,40,490L0,490Z"/><defs><linearGradient id="sw-gradient-1" x1="0" x2="0" y1="1" y2="0"><stop stop-color="rgba(38, 108, 207, 1)" offset="0%"/><stop stop-color="rgba(4.094, 44.728, 102.198, 1)" offset="100%"/></linearGradient></defs><path style="transform:translate(0, 50px); opacity:0.9" fill="url(#sw-gradient-1)" d="M0,49L40,49C80,49,160,49,240,98C320,147,400,245,480,294C560,343,640,343,720,326.7C800,310,880,278,960,236.8C1040,196,1120,147,1200,163.3C1280,180,1360,261,1440,302.2C1520,343,1600,343,1680,326.7C1760,310,1840,278,1920,253.2C2000,229,2080,212,2160,171.5C2240,131,2320,65,2400,65.3C2480,65,2560,131,2640,163.3C2720,196,2800,196,2880,204.2C2960,212,3040,229,3120,212.3C3200,196,3280,147,3360,106.2C3440,65,3520,33,3600,57.2C3680,82,3760,163,3840,204.2C3920,245,4000,245,4080,277.7C4160,310,4240,376,4320,400.2C4400,425,4480,408,4560,334.8C4640,261,4720,131,4800,114.3C4880,98,4960,196,5040,220.5C5120,245,5200,196,5280,204.2C5360,212,5440,278,5520,318.5C5600,359,5680,376,5720,383.8L5760,392L5760,490L5720,490C5680,490,5600,490,5520,490C5440,490,5360,490,5280,490C5200,490,5120,490,5040,490C4960,490,4880,490,4800,490C4720,490,4640,490,4560,490C4480,490,4400,490,4320,490C4240,490,4160,490,4080,490C4000,490,3920,490,3840,490C3760,490,3680,490,3600,490C3520,490,3440,490,3360,490C3280,490,3200,490,3120,490C3040,490,2960,490,2880,490C2800,490,2720,490,2640,490C2560,490,2480,490,2400,490C2320,490,2240,490,2160,490C2080,490,2000,490,1920,490C1840,490,1760,490,1680,490C1600,490,1520,490,1440,490C1360,490,1280,490,1200,490C1120,490,1040,490,960,490C880,490,800,490,720,490C640,490,560,490,480,490C400,490,320,490,240,490C160,490,80,490,40,490L0,490Z"/></svg>