<?xml version="1.0" standalone="no"?>
<svg xmlns:xlink="http://www.w3.org/1999/xlink" id="wave" style="transform:rotate(0deg); transition: 0.3s" viewBox="0 0 1440 490" version="1.1" xmlns="http://www.w3.org/2000/svg"><defs><linearGradient id="sw-gradient-0" x1="0" x2="0" y1="1" y2="0"><stop stop-color="rgba(117, 196, 248, 1)" offset="0%"/><stop stop-color="rgba(117, 196, 248, 1)" offset="100%"/></linearGradient></defs><path style="transform:translate(0, 0px); opacity:1" fill="url(#sw-gradient-0)" d="M0,49L40,81.7C80,114,160,180,240,204.2C320,229,400,212,480,196C560,180,640,163,720,130.7C800,98,880,49,960,49C1040,49,1120,98,1200,114.3C1280,131,1360,114,1440,130.7C1520,147,1600,196,1680,245C1760,294,1840,343,1920,359.3C2000,376,2080,359,2160,367.5C2240,376,2320,408,2400,400.2C2480,392,2560,343,2640,326.7C2720,310,2800,327,2880,334.8C2960,343,3040,343,3120,285.8C3200,229,3280,114,3360,106.2C3440,98,3520,196,3600,236.8C3680,278,3760,261,3840,269.5C3920,278,4000,310,4080,294C4160,278,4240,212,4320,187.8C4400,163,4480,180,4560,204.2C4640,229,4720,261,4800,269.5C4880,278,4960,261,5040,277.7C5120,294,5200,343,5280,367.5C5360,392,5440,392,5520,383.8C5600,376,5680,359,5720,351.2L5760,343L5760,490L5720,490C5680,490,5600,490,5520,490C5440,490,5360,490,5280,490C5200,490,5120,490,5040,490C4960,490,4880,490,4800,490C4720,490,4640,490,4560,490C4480,490,4400,490,4320,490C4240,490,4160,490,4080,490C4000,490,3920,490,3840,490C3760,490,3680,490,3600,490C3520,490,3440,490,3360,490C3280,490,3200,490,3120,490C3040,490,2960,490,2880,490C2800,490,2720,490,2640,490C2560,490,2480,490,2400,490C2320,490,2240,490,2160,490C2080,490,2000,490,1920,490C1840,490,1760,490,1680,490C1600,490,1520,490,1440,490C1360,490,1280,490,1200,490C1120,490,1040,490,960,490C880,490,800,490,720,490C640,490,560,490,480,490C400,490,320,490,240,490C160,490,80,490,40,490L0,490Z"/><defs><linearGradient id="sw-gradient-1" x1="0" x2="0" y1="1" y2="0"><stop stop-color="rgba(62, 154.564, 243, 1)" offset="0%"/><stop stop-color="rgba(24, 117, 179, 1)" offset="100%"/></linearGradient></defs><path style="transform:translate(0, 50px); opacity:0.9" fill="url(#sw-gradient-1)" d="M0,294L40,261.3C80,229,160,163,240,114.3C320,65,400,33,480,16.3C560,0,640,0,720,40.8C800,82,880,163,960,171.5C1040,180,1120,114,1200,98C1280,82,1360,114,1440,163.3C1520,212,1600,278,1680,285.8C1760,294,1840,245,1920,236.8C2000,229,2080,261,2160,228.7C2240,196,2320,98,2400,65.3C2480,33,2560,65,2640,81.7C2720,98,2800,98,2880,106.2C2960,114,3040,131,3120,155.2C3200,180,3280,212,3360,245C3440,278,3520,310,3600,269.5C3680,229,3760,114,3840,57.2C3920,0,4000,0,4080,0C4160,0,4240,0,4320,8.2C4400,16,4480,33,4560,98C4640,163,4720,278,4800,310.3C4880,343,4960,294,5040,245C5120,196,5200,147,5280,138.8C5360,131,5440,163,5520,163.3C5600,163,5680,131,5720,114.3L5760,98L5760,490L5720,490C5680,490,5600,490,5520,490C5440,490,5360,490,5280,490C5200,490,5120,490,5040,490C4960,490,4880,490,4800,490C4720,490,4640,490,4560,490C4480,490,4400,490,4320,490C4240,490,4160,490,4080,490C4000,490,3920,490,3840,490C3760,490,3680,490,3600,490C3520,490,3440,490,3360,490C3280,490,3200,490,3120,490C3040,490,2960,490,2880,490C2800,490,2720,490,2640,490C2560,490,2480,490,2400,490C2320,490,2240,490,2160,490C2080,490,2000,490,1920,490C1840,490,1760,490,1680,490C1600,490,1520,490,1440,490C1360,490,1280,490,1200,490C1120,490,1040,490,960,490C880,490,800,490,720,490C640,490,560,490,480,490C400,490,320,490,240,490C160,490,80,490,40,490L0,490Z"/></svg>